<svg xmlns="http://www.w3.org/2000/svg" xmlns:xlink="http://www.w3.org/1999/xlink" contentStyleType="text/css" data-diagram-type="SEQUENCE" height="723px" preserveAspectRatio="none" style="width:942px;height:723px;background:#FFFFFF;" version="1.1" viewBox="0 0 942 723" width="942px" zoomAndPan="magnify"><defs/><g><rect fill="#DDDDDD" height="711.25" style="stroke:#181818;stroke-width:0.5;" width="305.8276" x="285.0435" y="6"/><text fill="#000000" font-family="sans-serif" font-size="13" font-weight="bold" lengthAdjust="spacing" textLength="98.8267" x="388.5439" y="18.0669">User's Device</text><rect fill="#DDDDDD" height="711.25" style="stroke:#181818;stroke-width:0.5;" width="299.668" x="637.2988" y="6"/><text fill="#000000" font-family="sans-serif" font-size="13" font-weight="bold" lengthAdjust="spacing" textLength="98.6997" x="737.783" y="18.0669">Relying Party</text><g><title>User</title><rect fill="#000000" fill-opacity="0.00000" height="556.6563" width="8" x="62.9551" y="81.2969"/><line style="stroke:#181818;stroke-width:0.5;stroke-dasharray:5.0,5.0;" x1="66" x2="66" y1="81.2969" y2="637.9531"/></g><g><title>Wallet Instance</title><rect fill="#000000" fill-opacity="0.00000" height="556.6563" width="8" x="346.1943" y="81.2969"/><line style="stroke:#181818;stroke-width:0.5;stroke-dasharray:5.0,5.0;" x1="350.0435" x2="350.0435" y1="81.2969" y2="637.9531"/></g><g><title>User Agent</title><rect fill="#000000" fill-opacity="0.00000" height="556.6563" width="8" x="536.9712" y="81.2969"/><line style="stroke:#181818;stroke-width:0.5;stroke-dasharray:5.0,5.0;" x1="540.0713" x2="540.0713" y1="81.2969" y2="637.9531"/></g><g><title>Erasure Endoint</title><rect fill="#000000" fill-opacity="0.00000" height="556.6563" width="8" x="700.0938" y="81.2969"/><line style="stroke:#181818;stroke-width:0.5;stroke-dasharray:5.0,5.0;" x1="703.2988" x2="703.2988" y1="81.2969" y2="637.9531"/></g><g><title>Federation Endpoint</title><rect fill="#000000" fill-opacity="0.00000" height="556.6563" width="8" x="850.9277" y="81.2969"/><line style="stroke:#181818;stroke-width:0.5;stroke-dasharray:5.0,5.0;" x1="854.8887" x2="854.8887" y1="81.2969" y2="637.9531"/></g><g class="participant participant-head" data-participant="user"><text fill="#000000" font-family="sans-serif" font-size="14" lengthAdjust="spacing" textLength="31.9102" x="48" y="77.9951">User</text><ellipse cx="66.9551" cy="13.5" fill="#E2E2F0" rx="8" ry="8" style="stroke:#181818;stroke-width:0.5;"/><path d="M66.9551,21.5 L66.9551,48.5 M53.9551,29.5 L79.9551,29.5 M66.9551,48.5 L53.9551,63.5 M66.9551,48.5 L79.9551,63.5" fill="none" style="stroke:#181818;stroke-width:0.5;"/></g><g class="participant participant-tail" data-participant="user"><text fill="#000000" font-family="sans-serif" font-size="14" lengthAdjust="spacing" textLength="31.9102" x="48" y="649.9482">User</text><ellipse cx="66.9551" cy="661.75" fill="#E2E2F0" rx="8" ry="8" style="stroke:#181818;stroke-width:0.5;"/><path d="M66.9551,669.75 L66.9551,696.75 M53.9551,677.75 L79.9551,677.75 M66.9551,696.75 L53.9551,711.75 M66.9551,696.75 L79.9551,711.75" fill="none" style="stroke:#181818;stroke-width:0.5;"/></g><g class="participant participant-head" data-participant="app"><rect fill="#E2E2F0" height="30.2969" rx="2.5" ry="2.5" style="stroke:#181818;stroke-width:0.5;" width="122.3018" x="289.0435" y="50"/><text fill="#000000" font-family="sans-serif" font-size="14" lengthAdjust="spacing" textLength="108.3018" x="296.0435" y="69.9951">Wallet Instance</text></g><g class="participant participant-tail" data-participant="app"><rect fill="#E2E2F0" height="30.2969" rx="2.5" ry="2.5" style="stroke:#181818;stroke-width:0.5;" width="122.3018" x="289.0435" y="636.9531"/><text fill="#000000" font-family="sans-serif" font-size="14" lengthAdjust="spacing" textLength="108.3018" x="296.0435" y="656.9482">Wallet Instance</text></g><g class="participant participant-head" data-participant="ua"><rect fill="#E2E2F0" height="30.2969" rx="2.5" ry="2.5" style="stroke:#181818;stroke-width:0.5;" width="91.7998" x="495.0713" y="50"/><text fill="#000000" font-family="sans-serif" font-size="14" lengthAdjust="spacing" textLength="77.7998" x="502.0713" y="69.9951">User Agent</text></g><g class="participant participant-tail" data-participant="ua"><rect fill="#E2E2F0" height="30.2969" rx="2.5" ry="2.5" style="stroke:#181818;stroke-width:0.5;" width="91.7998" x="495.0713" y="636.9531"/><text fill="#000000" font-family="sans-serif" font-size="14" lengthAdjust="spacing" textLength="77.7998" x="502.0713" y="656.9482">User Agent</text></g><g class="participant participant-head" data-participant="eept"><rect fill="#E2E2F0" height="30.2969" rx="2.5" ry="2.5" style="stroke:#181818;stroke-width:0.5;" width="125.5898" x="641.2988" y="50"/><text fill="#000000" font-family="sans-serif" font-size="14" lengthAdjust="spacing" textLength="111.5898" x="648.2988" y="69.9951">Erasure Endoint</text></g><g class="participant participant-tail" data-participant="eept"><rect fill="#E2E2F0" height="30.2969" rx="2.5" ry="2.5" style="stroke:#181818;stroke-width:0.5;" width="125.5898" x="641.2988" y="636.9531"/><text fill="#000000" font-family="sans-serif" font-size="14" lengthAdjust="spacing" textLength="111.5898" x="648.2988" y="656.9482">Erasure Endoint</text></g><g class="participant participant-head" data-participant="fept"><rect fill="#E2E2F0" height="30.2969" rx="2.5" ry="2.5" style="stroke:#181818;stroke-width:0.5;" width="156.0781" x="776.8887" y="50"/><text fill="#000000" font-family="sans-serif" font-size="14" lengthAdjust="spacing" textLength="142.0781" x="783.8887" y="69.9951">Federation Endpoint</text></g><g class="participant participant-tail" data-participant="fept"><rect fill="#E2E2F0" height="30.2969" rx="2.5" ry="2.5" style="stroke:#181818;stroke-width:0.5;" width="156.0781" x="776.8887" y="636.9531"/><text fill="#000000" font-family="sans-serif" font-size="14" lengthAdjust="spacing" textLength="142.0781" x="783.8887" y="656.9482">Federation Endpoint</text></g><g class="message" data-participant-1="user" data-participant-2="app"><polygon fill="#181818" points="338.1943,108.4297,348.1943,112.4297,338.1943,116.4297,342.1943,112.4297" style="stroke:#181818;stroke-width:1;"/><line style="stroke:#181818;stroke-width:1;" x1="66.9551" x2="344.1943" y1="112.4297" y2="112.4297"/><text fill="#000000" font-family="sans-serif" font-size="13" font-weight="bold" lengthAdjust="spacing" textLength="9.0454" x="73.9551" y="107.3638">1</text><text fill="#000000" font-family="sans-serif" font-size="13" lengthAdjust="spacing" textLength="246.1938" x="87.0005" y="107.3638">Invoke attribute deletion functionality</text></g><g class="message" data-participant-1="app" data-participant-2="user"><polygon fill="#181818" points="77.9551,152.6953,67.9551,156.6953,77.9551,160.6953,73.9551,156.6953" style="stroke:#181818;stroke-width:1;"/><line style="stroke:#181818;stroke-width:1;" x1="71.9551" x2="349.1943" y1="156.6953" y2="156.6953"/><text fill="#000000" font-family="sans-serif" font-size="13" font-weight="bold" lengthAdjust="spacing" textLength="9.0454" x="83.9551" y="144.063">2</text><text fill="#000000" font-family="sans-serif" font-size="13" lengthAdjust="spacing" textLength="176.2998" x="97.0005" y="136.4966">Show list of Relying Parties</text><text fill="#000000" font-family="sans-serif" font-size="13" lengthAdjust="spacing" textLength="209.6187" x="97.0005" y="151.6294">in possession of User's Attribute</text></g><g class="message" data-participant-1="user" data-participant-2="app"><polygon fill="#181818" points="338.1943,196.9609,348.1943,200.9609,338.1943,204.9609,342.1943,200.9609" style="stroke:#181818;stroke-width:1;"/><line style="stroke:#181818;stroke-width:1;" x1="66.9551" x2="344.1943" y1="200.9609" y2="200.9609"/><text fill="#000000" font-family="sans-serif" font-size="13" font-weight="bold" lengthAdjust="spacing" textLength="9.0454" x="73.9551" y="188.3286">3</text><text fill="#000000" font-family="sans-serif" font-size="13" lengthAdjust="spacing" textLength="173.3989" x="87.0005" y="180.7622">Select the Relying Party to</text><text fill="#000000" font-family="sans-serif" font-size="13" lengthAdjust="spacing" textLength="216.3345" x="87.0005" y="195.895">request the deletion of attributes</text></g><g class="message" data-participant-1="app" data-participant-2="fept"><polygon fill="#181818" points="842.9277,226.0938,852.9277,230.0938,842.9277,234.0938,846.9277,230.0938" style="stroke:#181818;stroke-width:1;"/><line style="stroke:#181818;stroke-width:1;" x1="350.1943" x2="848.9277" y1="230.0938" y2="230.0938"/><text fill="#000000" font-family="sans-serif" font-size="13" font-weight="bold" lengthAdjust="spacing" textLength="9.0454" x="357.1943" y="225.0278">4</text><text fill="#000000" font-family="sans-serif" font-size="13" lengthAdjust="spacing" textLength="175.8047" x="370.2397" y="225.0278">Relying Party's EC Request</text></g><g class="message" data-participant-1="fept" data-participant-2="app"><polygon fill="#181818" points="361.1943,255.2266,351.1943,259.2266,361.1943,263.2266,357.1943,259.2266" style="stroke:#181818;stroke-width:1;"/><line style="stroke:#181818;stroke-width:1;stroke-dasharray:2.0,2.0;" x1="355.1943" x2="853.9277" y1="259.2266" y2="259.2266"/><text fill="#000000" font-family="sans-serif" font-size="13" font-weight="bold" lengthAdjust="spacing" textLength="9.0454" x="367.1943" y="254.1606">5</text><text fill="#000000" font-family="sans-serif" font-size="13" lengthAdjust="spacing" textLength="84.4429" x="380.2397" y="254.1606">EC Response</text></g><path d="M240,272.2266 L240,327.2266 L458,327.2266 L458,282.2266 L448,272.2266 L240,272.2266" fill="#FEFFDD" style="stroke:#181818;stroke-width:0.5;"/><path d="M448,272.2266 L448,282.2266 L458,282.2266 L448,272.2266" fill="#FEFFDD" style="stroke:#181818;stroke-width:0.5;"/><text fill="#000000" font-family="sans-serif" font-size="13" lengthAdjust="spacing" textLength="180.9019" x="246" y="289.2935">The Wallet Instance obtains</text><text fill="#000000" font-family="sans-serif" font-size="13" lengthAdjust="spacing" textLength="197.4756" x="246" y="304.4263">the Erasure Endpoint from the</text><text fill="#000000" font-family="sans-serif" font-size="13" lengthAdjust="spacing" textLength="195.7808" x="246" y="319.5591">metadata of the Relying Party</text><g class="message" data-participant-1="app" data-participant-2="app"><line style="stroke:#181818;stroke-width:1;" x1="350.1943" x2="392.1943" y1="368.8906" y2="368.8906"/><line style="stroke:#181818;stroke-width:1;" x1="392.1943" x2="392.1943" y1="368.8906" y2="381.8906"/><line style="stroke:#181818;stroke-width:1;" x1="351.1943" x2="392.1943" y1="381.8906" y2="381.8906"/><polygon fill="#181818" points="361.1943,377.8906,351.1943,381.8906,361.1943,385.8906,357.1943,381.8906" style="stroke:#181818;stroke-width:1;"/><text fill="#000000" font-family="sans-serif" font-size="13" font-weight="bold" lengthAdjust="spacing" textLength="9.0454" x="357.1943" y="356.2583">6</text><text fill="#000000" font-family="sans-serif" font-size="13" lengthAdjust="spacing" textLength="159.5991" x="370.2397" y="348.6919">The Wallet Instance logs</text><text fill="#000000" font-family="sans-serif" font-size="13" lengthAdjust="spacing" textLength="132.8691" x="370.2397" y="363.8247">the Erasure Request</text></g><g class="message" data-participant-1="app" data-participant-2="ua"><polygon fill="#181818" points="528.9712,407.0234,538.9712,411.0234,528.9712,415.0234,532.9712,411.0234" style="stroke:#181818;stroke-width:1;"/><line style="stroke:#181818;stroke-width:1;" x1="350.1943" x2="534.9712" y1="411.0234" y2="411.0234"/><text fill="#000000" font-family="sans-serif" font-size="13" font-weight="bold" lengthAdjust="spacing" textLength="9.0454" x="357.1943" y="405.9575">7</text><text fill="#000000" font-family="sans-serif" font-size="13" lengthAdjust="spacing" textLength="4.1323" x="370.2397" y="405.9575">&#160;</text></g><g class="message" data-participant-1="ua" data-participant-2="eept"><polygon fill="#181818" points="692.0938,436.1563,702.0938,440.1563,692.0938,444.1563,696.0938,440.1563" style="stroke:#181818;stroke-width:1;"/><line style="stroke:#181818;stroke-width:1;" x1="540.9712" x2="698.0938" y1="440.1563" y2="440.1563"/><text fill="#000000" font-family="sans-serif" font-size="13" font-weight="bold" lengthAdjust="spacing" textLength="9.0454" x="547.9712" y="435.0903">8</text><text fill="#000000" font-family="sans-serif" font-size="13" lengthAdjust="spacing" textLength="107.4023" x="561.0166" y="435.0903">Erasure Request</text></g><path d="M5,453.1563 L5,478.1563 L767,478.1563 L767,463.1563 L757,453.1563 L5,453.1563" fill="#FEFFDD" style="stroke:#181818;stroke-width:0.5;"/><path d="M757,453.1563 L757,463.1563 L767,463.1563 L757,453.1563" fill="#FEFFDD" style="stroke:#181818;stroke-width:0.5;"/><text fill="#000000" font-family="sans-serif" font-size="13" lengthAdjust="spacing" textLength="741.292" x="11" y="470.2231">The Relying Party authenticates the User. The flow continues when the user has been successfully authenticated.</text><g class="message" data-participant-1="eept" data-participant-2="eept"><line style="stroke:#181818;stroke-width:1;" x1="704.0938" x2="746.0938" y1="519.5547" y2="519.5547"/><line style="stroke:#181818;stroke-width:1;" x1="746.0938" x2="746.0938" y1="519.5547" y2="532.5547"/><line style="stroke:#181818;stroke-width:1;" x1="705.0938" x2="746.0938" y1="532.5547" y2="532.5547"/><polygon fill="#181818" points="715.0938,528.5547,705.0938,532.5547,715.0938,536.5547,711.0938,532.5547" style="stroke:#181818;stroke-width:1;"/><text fill="#000000" font-family="sans-serif" font-size="13" font-weight="bold" lengthAdjust="spacing" textLength="9.0454" x="711.0938" y="506.9224">9</text><text fill="#000000" font-family="sans-serif" font-size="13" lengthAdjust="spacing" textLength="110.3223" x="724.1392" y="499.356">Delete attributes</text><text fill="#000000" font-family="sans-serif" font-size="13" lengthAdjust="spacing" textLength="117.3491" x="724.1392" y="514.4888">bound to the User</text></g><g class="message" data-participant-1="eept" data-participant-2="ua"><polygon fill="#181818" points="551.9712,557.6875,541.9712,561.6875,551.9712,565.6875,547.9712,561.6875" style="stroke:#181818;stroke-width:1;"/><line style="stroke:#181818;stroke-width:1;stroke-dasharray:2.0,2.0;" x1="545.9712" x2="703.0938" y1="561.6875" y2="561.6875"/><text fill="#000000" font-family="sans-serif" font-size="13" font-weight="bold" lengthAdjust="spacing" textLength="18.0908" x="557.9712" y="556.6216">10</text><text fill="#000000" font-family="sans-serif" font-size="13" lengthAdjust="spacing" textLength="117.0317" x="580.062" y="556.6216">Erasure Response</text></g><g class="message" data-participant-1="ua" data-participant-2="app"><polygon fill="#181818" points="361.1943,586.8203,351.1943,590.8203,361.1943,594.8203,357.1943,590.8203" style="stroke:#181818;stroke-width:1;"/><line style="stroke:#181818;stroke-width:1;stroke-dasharray:2.0,2.0;" x1="355.1943" x2="539.9712" y1="590.8203" y2="590.8203"/><text fill="#000000" font-family="sans-serif" font-size="13" font-weight="bold" lengthAdjust="spacing" textLength="18.0908" x="367.1943" y="585.7544">11</text><text fill="#000000" font-family="sans-serif" font-size="13" lengthAdjust="spacing" textLength="4.1323" x="389.2852" y="585.7544">&#160;</text></g><g class="message" data-participant-1="app" data-participant-2="user"><polygon fill="#181818" points="77.9551,615.9531,67.9551,619.9531,77.9551,623.9531,73.9551,619.9531" style="stroke:#181818;stroke-width:1;"/><line style="stroke:#181818;stroke-width:1;" x1="71.9551" x2="349.1943" y1="619.9531" y2="619.9531"/><text fill="#000000" font-family="sans-serif" font-size="13" font-weight="bold" lengthAdjust="spacing" textLength="18.0908" x="83.9551" y="614.8872">12</text><text fill="#000000" font-family="sans-serif" font-size="13" lengthAdjust="spacing" textLength="72.4204" x="106.0459" y="614.8872">Notify User</text></g><!--SRC=[RL91Zjim3Bpx5KGklNJt0JaKM7HJe9UYwBRefHTQfXEXYkXALBRvVKavTg9iRx8v7CuCYKKubcDFgKCdd63p8rFQ06Oe-kYwdl-2_NgNuPbEtb4tOHBl_8HHOFCJGo21pp4BHaUr4QS9MfGHmDEUeipCs54SGAbd_cyKpZxkuQlsdDlENS9S4i4k3kmlxKIJjAXFD512yHmDEAt8qP3hAAYMuE63ATogvXF_9a2HvFiY10Ef5UCOItJsmE1L3rH3scNTMtWvy2i4dmLuR9Hxol0h-WWJvqmv6vD2Bk4zBMFkPRpeL2SW1sfp066bI_IdK9xBgpvbNLNdgpvpksr9TF3ke_wg98eq23miesifJnmpMJgHDGG-gJQjwZV0Tvrwjs7WNj37NEkcwcP3DNWO4n-jKX574XnGq3I_iQW8MuxDxQusghJ_JGwyjuHlXrwTBJl2hGMCzgQQnrjeOzLsyNu-gSLnkmOiEZ3ghQ66NJtOHXyhSWnw2uwr6fKRNXLO4NN11pt0dlHFBixfFOmbX9PkUBnBWEfw5kNFjk-R0pNpFHV5wsaiGjQksVoDtUjYBOvBiFVN_8N5Z-VAz0y0]--></g></svg>